<?xml version="1.0" encoding="UTF-8"?>
<svg width="172px" height="25px" viewBox="0 0 172 25" version="1.1" xmlns="http://www.w3.org/2000/svg" xmlns:xlink="http://www.w3.org/1999/xlink">
    <!-- Generator: Sketch 46.2 (44496) - http://www.bohemiancoding.com/sketch -->
    <title>voyagerapi_logomain</title>
    <desc>Created with Sketch.</desc>
    <defs>
        <polygon id="path-1" points="24.9057377 0.3375 24.9057377 22.0833333 0 22.0833333 0 0.3375"></polygon>
        <polygon id="path-3" points="0.344672131 0.304166667 4.74057377 0.304166667 4.74057377 4.77279167 0.344672131 4.77279167 0.344672131 0.304166667"></polygon>
        <polygon id="path-5" points="6.75831623 0.0152631579 0.000255101946 0.0152631579 0.000255101946 9.33100138 6.75831623 9.33100138 6.75831623 0.0152631579"></polygon>
        <polygon id="path-7" points="1.33947368 9.39978947 1.33947368 0.165052632 0.505894737 0.165052632 0.505894737 9.39978947 1.33947368 9.39978947"></polygon>
    </defs>
    <g id="Desktop" stroke="none" stroke-width="1" fill="none" fill-rule="evenodd">
        <g id="00-Home" transform="translate(-50.000000, -18.000000)">
            <g id="Group-12" transform="translate(50.000000, 10.000000)">
                <g id="voyagerapi_logomain" transform="translate(0.000000, 8.000000)">
                    <g id="Group-10">
                        <g id="Page-1">
                            <g id="Group-3" transform="translate(0.000000, 2.612500)">
                                <mask id="mask-2" fill="white">
                                    <use xlink:href="#path-1"></use>
                                </mask>
                                <g id="Clip-2"></g>
                                <path d="M23.0018852,3.16666667 C22.5162295,3.16666667 22.1227869,2.76666667 22.1227869,2.27291667 C22.1227869,1.77916667 22.5162295,1.37916667 23.0018852,1.37916667 C23.4879508,1.37916667 23.8813934,1.77916667 23.8813934,2.27291667 C23.8813934,2.76666667 23.4879508,3.16666667 23.0018852,3.16666667 L23.0018852,3.16666667 Z M20.6731967,13.3104167 C20.1383607,13.3483333 19.667459,13.60875 19.3445082,14.005 L16.3055738,11.8420833 L22.165,4.20958333 L20.6731967,13.3104167 Z M21.6834426,15.2325 C21.6834426,15.7258333 21.2895902,16.12625 20.8043443,16.12625 C20.3186885,16.12625 19.9252459,15.7258333 19.9252459,15.2325 C19.9252459,14.73875 20.3186885,14.3383333 20.8043443,14.3383333 C21.2895902,14.3383333 21.6834426,14.73875 21.6834426,15.2325 L21.6834426,15.2325 Z M8.93672131,21.0416667 C8.45106557,21.0416667 8.05721311,20.64125 8.05721311,20.1479167 C8.05721311,19.6541667 8.45106557,19.2541667 8.93672131,19.2541667 C9.42196721,19.2541667 9.81540984,19.6541667 9.81540984,20.1479167 C9.81540984,20.64125 9.42196721,21.0416667 8.93672131,21.0416667 L8.93672131,21.0416667 Z M1.90393443,8.08208333 C1.41827869,8.08208333 1.02442623,7.68208333 1.02442623,7.18833333 C1.02442623,6.695 1.41827869,6.29458333 1.90393443,6.29458333 C2.38918033,6.29458333 2.78262295,6.695 2.78262295,7.18833333 C2.78262295,7.68208333 2.38918033,8.08208333 1.90393443,8.08208333 L1.90393443,8.08208333 Z M11.5736066,9.86958333 C11.0883607,9.86958333 10.694918,9.46958333 10.694918,8.97583333 C10.694918,8.4825 11.0883607,8.08208333 11.5736066,8.08208333 C12.0592623,8.08208333 12.4531148,8.4825 12.4531148,8.97583333 C12.4531148,9.46958333 12.0592623,9.86958333 11.5736066,9.86958333 L11.5736066,9.86958333 Z M23.0018852,0.3375 C21.9522951,0.3375 21.0981967,1.20583333 21.0981967,2.27291667 C21.0981967,2.70208333 21.2408197,3.095 21.4740164,3.41625 L15.465,11.24375 L13.3289344,9.72375 C13.4244262,9.49375 13.4777049,9.24125 13.4777049,8.97583333 C13.4777049,7.90875 12.6236066,7.04041667 11.5736066,7.04041667 C10.5240164,7.04041667 9.67032787,7.90875 9.67032787,8.97583333 C9.67032787,10.0433333 10.5240164,10.91125 11.5736066,10.91125 C11.9908197,10.91125 12.3731967,10.7704167 12.687541,10.5383333 L14.8338525,12.06625 L9.90270492,18.4895833 C9.61827869,18.3175 9.29081967,18.2125 8.93672131,18.2125 C8.71213115,18.2125 8.49983607,18.2591667 8.3002459,18.3316667 L3.09655738,8.68458333 C3.52647541,8.32958333 3.80721311,7.79416667 3.80721311,7.18833333 C3.80721311,6.12125 2.95352459,5.25291667 1.90393443,5.25291667 C0.853934426,5.25291667 -0.000163934426,6.12125 -0.000163934426,7.18833333 C-0.000163934426,8.25583333 0.853934426,9.12375 1.90393443,9.12375 C1.98877049,9.12375 2.0695082,9.10958333 2.15147541,9.09833333 L7.46008197,18.9408333 C7.19737705,19.2729167 7.03262295,19.6891667 7.03262295,20.1479167 C7.03262295,21.215 7.88672131,22.0833333 8.93672131,22.0833333 C9.98590164,22.0833333 10.84,21.215 10.84,20.1479167 C10.84,19.8241667 10.7539344,19.5233333 10.615,19.2545833 L15.6744262,12.6641667 L18.9260656,14.9783333 C18.9145902,15.0620833 18.9006557,15.1454167 18.9006557,15.2325 C18.9006557,16.2995833 19.7543443,17.1679167 20.8043443,17.1679167 C21.8539344,17.1679167 22.7080328,16.2995833 22.7080328,15.2325 C22.7080328,14.4866667 22.2867213,13.8454167 21.6772951,13.5225 L23.207623,4.18708333 C24.1596721,4.08125 24.9059836,3.26875 24.9059836,2.27291667 C24.9059836,1.20583333 24.0518852,0.3375 23.0018852,0.3375 L23.0018852,0.3375 Z" id="Fill-1" fill="#FFFAF3" mask="url(#mask-2)"></path>
                            </g>
                            <g id="Group-6" transform="translate(9.016393, 0.112500)">
                                <mask id="mask-4" fill="white">
                                    <use xlink:href="#path-3"></use>
                                </mask>
                                <g id="Clip-5"></g>
                                <path d="M4.74057377,2.538625 C4.74057377,3.772375 3.75655738,4.77279167 2.54262295,4.77279167 C1.32909836,4.77279167 0.344672131,3.772375 0.344672131,2.538625 C0.344672131,1.30445833 1.32909836,0.304041667 2.54262295,0.304041667 C3.75655738,0.304041667 4.74057377,1.30445833 4.74057377,2.538625" id="Fill-4" fill="#FFAC33" mask="url(#mask-4)"></path>
                            </g>
                        </g>
                    </g>
                    <g id="Page-1" transform="translate(45.000000, 8.000000)">
                        <g id="Group-3" transform="translate(0.000000, 0.510895)">
                            <mask id="mask-6" fill="white">
                                <use xlink:href="#path-5"></use>
                            </mask>
                            <g id="Clip-2"></g>
                            <path d="M0.012,0.683105263 C-0.000105263158,0.645210526 -0.000105263158,0.607315789 0.000421052632,0.569421053 C0.000947368421,0.241 0.468315789,0.0141578947 0.834631579,0.0152105263 C1.062,0.0157368421 1.23884211,0.0925789474 1.30147368,0.294684211 L3.36989474,7.49994737 L5.45778947,0.303631579 C5.52147368,0.102052632 5.69831579,0.0262631579 5.91305263,0.0267894737 C6.292,0.0273157895 6.75884211,0.268368421 6.75831579,0.584684211 C6.75778947,0.622578947 6.74515789,0.659947368 6.73305263,0.697842105 L4.21305263,8.87784211 C4.12357895,9.181 3.74515789,9.33152632 3.36568421,9.331 C2.98673684,9.32994737 2.62042105,9.17836842 2.52094737,8.87415789 L0.012,0.683105263 Z" id="Fill-1" fill="#FFFAF3" mask="url(#mask-6)"></path>
                        </g>
                        <path d="M18.3106842,3.382 C18.3133158,2.27042105 17.7459474,1.75147368 16.8112105,1.74936842 C15.8638421,1.74778947 15.3191053,2.26357895 15.317,3.37515789 L15.3085789,7.052 C15.3059474,8.16305263 15.8480526,8.68252632 16.7959474,8.68463158 C17.7301579,8.68673684 18.2996316,8.16989474 18.3022632,7.05831579 L18.3106842,3.382 Z M13.9696316,7.04936842 L13.9780526,3.37252632 C13.9822632,1.32673684 15.2091053,0.558315789 16.8138421,0.562 C18.4054211,0.565157895 19.6548947,1.33884211 19.6501579,3.38515789 L19.6417368,7.06147368 C19.6375263,9.10778947 18.3848947,9.87515789 16.7933158,9.87147368 C15.1885789,9.86778947 13.9648947,9.09515789 13.9696316,7.04936842 L13.9696316,7.04936842 Z" id="Fill-4" fill="#FFFAF3"></path>
                        <path d="M29.4075263,6.18573684 C29.4075263,6.13521053 29.3822632,6.08521053 29.3701579,6.04678947 L26.7654211,1.32889474 C26.7275263,1.25363158 26.7154211,1.19047368 26.7159474,1.13994737 C26.7164737,0.811526316 27.2091053,0.584684211 27.5627895,0.585210526 C27.7775263,0.585736842 27.8912105,0.687842105 28.0043684,0.889421053 L30.0796316,4.89942105 L32.1606842,0.898894737 C32.2622632,0.696789474 32.3885789,0.596263158 32.6033158,0.596789474 C32.957,0.597315789 33.4364737,0.826263158 33.4359474,1.15468421 C33.4354211,1.20521053 33.4354211,1.26836842 33.3975263,1.34363158 L30.7722632,6.04994737 C30.7591053,6.08784211 30.747,6.13836842 30.747,6.18889474 L30.7396316,9.38468421 C30.7391053,9.67521053 30.3975263,9.82626316 30.0691053,9.82521053 C29.7275263,9.82468421 29.3996316,9.67205263 29.4001579,9.38152632 L29.4075263,6.18573684 Z" id="Fill-6" fill="#FFFAF3"></path>
                        <path d="M56.1334737,1.83694737 C55.1855789,1.83484211 54.6413684,2.35115789 54.6387368,3.46273684 L54.6308421,7.13905263 C54.6282105,8.25063158 55.1703158,8.77010526 56.1182105,8.77221053 C57.0524211,8.77431579 57.6218947,8.25694737 57.6245263,7.14589474 L57.6266316,6.10957895 L56.3508421,6.10694737 C56.0729474,6.10589474 55.9224211,5.84063158 55.9229474,5.56273684 C55.9234737,5.31063158 56.0755789,5.03221053 56.3534737,5.03326316 L58.5261053,5.038 C58.804,5.03852632 58.9682105,5.25378947 58.9676842,5.49378947 L58.964,7.14905263 C58.9592632,9.19484211 57.7066316,9.96221053 56.1155789,9.95905263 C54.5108421,9.95536842 53.2871579,9.18221053 53.2918947,7.13589474 L53.2997895,3.45957895 C53.3045263,1.41326316 54.5566316,0.645368421 56.0982105,0.648526316 C57.7903158,0.652736842 58.9761053,1.56484211 58.9734737,2.99221053 C58.9724211,3.51063158 58.744,3.63642105 58.3018947,3.63536842 C57.9482105,3.63431579 57.6455789,3.52010526 57.6334737,3.19168421 C57.5592632,2.45905263 57.2324211,1.83905263 56.1334737,1.83694737" id="Fill-8" fill="#FFFAF3"></path>
                        <path d="M68.0629474,4.75584211 L70.0082105,4.76057895 C70.2866316,4.76110526 70.4503158,5.01373684 70.4497895,5.30426316 C70.4492632,5.54426316 70.3097895,5.82215789 70.0061053,5.82163158 L68.0608421,5.81742105 L68.054,8.72268421 L71.8061053,8.73110526 C72.0845263,8.73215789 72.2476842,9.00952632 72.2471579,9.33742105 C72.2461053,9.61531579 72.1071579,9.919 71.8034737,9.91794737 L67.3066316,9.90794737 C67.0161053,9.90742105 66.7134737,9.75478947 66.714,9.46426316 L66.7324211,1.11478947 C66.7329474,0.823736842 67.0366316,0.673210526 67.3271579,0.673736842 L71.824,0.683736842 C72.1276842,0.684789474 72.2655789,0.987947368 72.2645263,1.26584211 C72.264,1.59426316 72.0997895,1.87215789 71.8218947,1.87163158 L68.0697895,1.86321053 L68.0629474,4.75584211 Z" id="Fill-10" fill="#FFFAF3"></path>
                        <g id="Group-14" transform="translate(79.473684, 0.510895)" fill="#FFFAF3">
                            <path d="M1.50610526,1.38105263 L1.49926316,4.38736842 L3.01505263,4.39052632 C3.96294737,4.39315789 4.58294737,3.99 4.58505263,2.89105263 C4.58715789,1.79157895 3.96978947,1.38684211 3.02189474,1.38421053 L1.50610526,1.38105263 Z M0.180842105,0.62 C0.181368421,0.392631579 0.358736842,0.190526316 0.624,0.191052632 L3.02452632,0.196315789 C4.61610526,0.2 5.92821053,0.822105263 5.92452632,2.78 C5.92084211,4.28368421 5.14873684,5.02736842 4.13768421,5.27736842 L5.89926316,8.60421053 C5.93610526,8.66736842 5.94873684,8.74263158 5.94873684,8.79315789 C5.94768421,9.13368421 5.51768421,9.47421053 5.13873684,9.47368421 C4.91189474,9.47315789 4.73505263,9.32105263 4.60926316,9.08052632 L2.77242105,5.46368421 L1.49663158,5.46105263 L1.48926316,8.98526316 C1.48873684,9.27578947 1.15978947,9.42631579 0.818210526,9.42578947 C0.489789474,9.42526316 0.161894737,9.27263158 0.162421053,8.98210526 L0.180842105,0.62 Z" id="Fill-12"></path>
                        </g>
                        <path d="M45.4627368,9.73710526 C45.1874737,9.73710526 44.9301053,9.56236842 44.8385263,9.28710526 L42.8311579,3.26447368 L40.8237895,9.28710526 C40.7090526,9.63131579 40.338,9.81710526 39.9911579,9.70342105 C39.6469474,9.58815789 39.4606316,9.21552632 39.5753684,8.87078947 L42.2069474,0.976052632 C42.2964211,0.707631579 42.548,0.526578947 42.8311579,0.526578947 C43.1143158,0.526578947 43.3658947,0.707631579 43.4553684,0.976052632 L46.0869474,8.87078947 C46.2016842,9.21552632 46.0153684,9.58815789 45.6711579,9.70342105 C45.6022105,9.72605263 45.5316842,9.73710526 45.4627368,9.73710526" id="Fill-15" fill="#FFFAF3"></path>
                        <path d="M103.639158,7.03021053 L102.110737,1.93915789 L100.569684,7.03021053 L103.639158,7.03021053 Z M98.9649474,9.55705263 C98.9649474,9.53178947 98.9649474,9.49389474 98.9781053,9.46863158 L101.618105,0.890736842 C101.680737,0.688631579 101.895474,0.600210526 102.110737,0.600210526 C102.337579,0.600210526 102.552842,0.701789474 102.616,0.890736842 L105.243368,9.46863158 C105.243368,9.49389474 105.256,9.51915789 105.256,9.54389474 C105.256,9.746 104.978105,9.91073684 104.750737,9.91073684 C104.612316,9.91073684 104.485474,9.84757895 104.434947,9.69547368 L103.853895,7.75021053 L100.354947,7.75021053 L99.7733684,9.69547368 C99.7354737,9.84757895 99.5965263,9.91073684 99.4449474,9.91073684 C99.2302105,9.91073684 98.9649474,9.77178947 98.9649474,9.55705263 L98.9649474,9.55705263 Z" id="Fill-17" fill="#FFAC33"></path>
                        <path d="M113.630421,1.44684211 L113.630421,5.45105263 L115.449368,5.45105263 C116.574105,5.45105263 117.243053,4.83263158 117.243053,3.51842105 L117.243053,3.36684211 C117.243053,2.05263158 116.574105,1.44684211 115.449368,1.44684211 L113.630421,1.44684211 Z M112.796737,0.978947368 C112.796737,0.815263158 112.935684,0.688947368 113.150421,0.675789474 L115.475158,0.675789474 C116.940421,0.675789474 118.077263,1.39578947 118.077263,3.35421053 L118.077263,3.48052632 C118.077263,5.43842105 116.927789,6.17157895 115.449368,6.17157895 L113.630421,6.17157895 L113.630421,9.58210526 C113.630421,9.79684211 113.415684,9.91052632 113.213579,9.91052632 C112.998842,9.91052632 112.796737,9.79684211 112.796737,9.58210526 L112.796737,0.978947368 Z" id="Fill-19" fill="#FFAC33"></path>
                        <g id="Group-23" transform="translate(125.263158, 0.510895)">
                            <mask id="mask-8" fill="white">
                                <use xlink:href="#path-7"></use>
                            </mask>
                            <g id="Clip-22"></g>
                            <path d="M0.505894737,0.468210526 C0.505894737,0.253473684 0.708,0.165052632 0.922736842,0.165052632 C1.12484211,0.165052632 1.33957895,0.253473684 1.33957895,0.468210526 L1.33957895,9.07136842 C1.33957895,9.28610526 1.12484211,9.39978947 0.922736842,9.39978947 C0.708,9.39978947 0.505894737,9.28610526 0.505894737,9.07136842 L0.505894737,0.468210526 Z" id="Fill-21" fill="#FFAC33" mask="url(#mask-8)"></path>
                        </g>
                    </g>
                </g>
            </g>
        </g>
    </g>
</svg>