<?xml version="1.0" encoding="UTF-8"?>
<svg width="12px" height="15px" viewBox="0 0 12 15" version="1.1" xmlns="http://www.w3.org/2000/svg" xmlns:xlink="http://www.w3.org/1999/xlink">
    <!-- Generator: Sketch 46.2 (44496) - http://www.bohemiancoding.com/sketch -->
    <title>icon_docs</title>
    <desc>Created with Sketch.</desc>
    <defs></defs>
    <g id="Desktop" stroke="none" stroke-width="1" fill="none" fill-rule="evenodd">
        <g id="00-Home" transform="translate(-834.000000, -23.000000)" fill="#D6D6D6">
            <g id="Group-12" transform="translate(50.000000, 10.000000)">
                <g id="Group-9" transform="translate(784.000000, 12.000000)">
                    <g id="Group-8">
                        <path d="M1.41176471,14.6363636 L1.41176471,2.36363636 L5.64705882,2.36363636 L5.64705882,6.44090909 C5.64705882,6.81744318 5.94652941,7.13636364 6.33635294,7.13636364 L10.5882353,7.13636364 L10.5882353,14.6363636 L1.41176471,14.6363636 Z M10.5866471,5.77272727 L7.05882353,5.77272727 L7.05882353,2.36363636 L7.09023529,2.36363636 L10.5866471,5.77272727 Z M11.7945882,4.99835227 L7.88417647,1.20096591 C7.75182353,1.07227273 7.57164706,1 7.38370588,1 L0.705882353,1 C0.316058824,1 0,1.30528409 0,1.68181818 L0,15.3181818 C0,15.6947159 0.316058824,16 0.705882353,16 L11.2941176,16 C11.6839412,16 12,15.6947159 12,15.3181818 L12,5.47920455 C12,5.29903409 11.9262353,5.12619318 11.7945882,4.99835227 L11.7945882,4.99835227 Z" id="icon_docs"></path>
                    </g>
                </g>
            </g>
        </g>
    </g>
</svg>