<?xml version="1.0" encoding="UTF-8"?>
<svg width="10px" height="10px" viewBox="0 0 10 10" version="1.1" xmlns="http://www.w3.org/2000/svg" xmlns:xlink="http://www.w3.org/1999/xlink">
    <!-- Generator: Sketch 46.2 (44496) - http://www.bohemiancoding.com/sketch -->
    <title>icon_close</title>
    <desc>Created with Sketch.</desc>
    <defs></defs>
    <g id="Desktop" stroke="none" stroke-width="1" fill="none" fill-rule="evenodd">
        <g id="02-Getting-Started" transform="translate(-1058.000000, -177.000000)" fill="#D6D6D6">
            <g id="Group-27" transform="translate(345.000000, 162.000000)">
                <path d="M722.746489,23.5226852 C723.084568,23.8605714 723.084568,24.408651 722.746489,24.7465372 C722.57745,24.9155765 722.356103,25 722.134563,25 C721.913024,25 721.691676,24.9155765 721.522637,24.7465372 L717.999928,21.223828 L714.477411,24.7465372 C714.308372,24.9155765 714.087024,25 713.865293,25 C713.643945,25 713.422598,24.9155765 713.253559,24.7465372 C712.91548,24.408651 712.91548,23.8605714 713.253559,23.5226852 L716.776076,19.999976 L713.253559,16.4772667 C712.91548,16.1393805 712.91548,15.5913009 713.253559,15.2534147 C713.591637,14.9155284 714.139332,14.9155284 714.477411,15.2534147 L717.999928,18.7761239 L721.522637,15.2534147 C721.860716,14.9155284 722.408411,14.9155284 722.746489,15.2534147 C723.084568,15.5913009 723.084568,16.1393805 722.746489,16.4772667 L719.223972,19.999976 L722.746489,23.5226852 Z" id="icon_close"></path>
            </g>
        </g>
    </g>
</svg>