<?xml version="1.0" encoding="UTF-8"?>
<svg width="17px" height="17px" viewBox="0 0 17 17" version="1.1" xmlns="http://www.w3.org/2000/svg" xmlns:xlink="http://www.w3.org/1999/xlink">
    <!-- Generator: Sketch 46.2 (44496) - http://www.bohemiancoding.com/sketch -->
    <title>icon_help</title>
    <desc>Created with Sketch.</desc>
    <defs></defs>
    <g id="Desktop" stroke="none" stroke-width="1" fill="none" fill-rule="evenodd">
        <g id="00-Home" transform="translate(-923.000000, -22.000000)" fill="#D6D6D6">
            <g id="Group-12" transform="translate(50.000000, 10.000000)">
                <g id="Group-7" transform="translate(873.000000, 12.000000)">
                    <path d="M15.5217391,8.5 C15.5217391,4.62825 12.37175,1.47826087 8.5,1.47826087 C4.62825,1.47826087 1.47826087,4.62825 1.47826087,8.5 C1.47826087,12.37175 4.62825,15.5217391 8.5,15.5217391 C12.37175,15.5217391 15.5217391,12.37175 15.5217391,8.5 M17,8.5 C17,13.1868261 13.1868261,17 8.5,17 C3.81317391,17 0,13.1868261 0,8.5 C0,3.81317391 3.81317391,0 8.5,0 C13.1868261,0 17,3.81317391 17,8.5 M8.45195652,11.4602174 C8.20804348,11.4602174 7.97152174,11.56 7.79782609,11.7318478 C7.62597826,11.9036957 7.52804348,12.1420652 7.52804348,12.3841304 C7.52804348,12.6280435 7.62597826,12.866413 7.79782609,13.0382609 C7.97152174,13.2101087 8.20804348,13.3098913 8.45195652,13.3098913 C8.69586957,13.3098913 8.93423913,13.2101087 9.10608696,13.0382609 C9.27793478,12.866413 9.37586957,12.6280435 9.37586957,12.3841304 C9.37586957,12.1420652 9.27793478,11.9036957 9.10608696,11.7318478 C8.93423913,11.56 8.69586957,11.4602174 8.45195652,11.4602174 M11.2573261,4.71103261 C11.8416087,5.36996739 12.1178587,6.28963043 12.0044022,7.23442391 C11.791163,9.00870652 10.4936196,9.64084783 9.33909783,9.64084783 C9.29086957,9.64084783 9.23913043,9.6421413 9.23913043,9.64398913 L9.23913043,10.0926413 C9.23913043,10.5008261 8.90818478,10.8317717 8.5,10.8317717 C8.09181522,10.8317717 7.76086957,10.5008261 7.76086957,10.0926413 L7.76086957,9.49708696 C7.76086957,8.88822826 8.01476087,8.16258696 9.33909783,8.16258696 C10.0536522,8.16258696 10.4365217,7.79098913 10.524663,7.0581413 C10.554413,6.8096087 10.5773261,6.17876087 10.1453043,5.69204348 C9.79421739,5.29623913 9.22453261,5.09556522 8.45195652,5.09556522 C6.77967391,5.09556522 6.73144565,6.17672826 6.73144565,6.29997826 C6.73144565,6.70816304 6.4005,7.0391087 5.99231522,7.0391087 C5.58413043,7.0391087 5.25318478,6.70816304 5.25318478,6.29997826 C5.25318478,5.55382609 5.8278587,3.61730435 8.45195652,3.61730435 C9.96366304,3.61730435 10.814587,4.21211957 11.2573261,4.71103261" id="icon_help"></path>
                </g>
            </g>
        </g>
    </g>
</svg>