<?xml version="1.0" encoding="UTF-8"?>
<svg width="80px" height="79px" viewBox="0 0 80 79" version="1.1" xmlns="http://www.w3.org/2000/svg" xmlns:xlink="http://www.w3.org/1999/xlink">
    <!-- Generator: Sketch 46.2 (44496) - http://www.bohemiancoding.com/sketch -->
    <title>voyager_icon1</title>
    <desc>Created with Sketch.</desc>
    <defs>
        <polygon id="path-1" points="0 10.8014154 0 0.579876923 10.2224615 0.579876923 10.2224615 10.8014154 6.35142313e-16 10.8014154"></polygon>
        <polygon id="path-3" points="7.664 0.291507692 7.664 7.48350769 0.472123077 7.48350769 0.472123077 0.291507692 7.664 0.291507692"></polygon>
    </defs>
    <g id="Desktop" stroke="none" stroke-width="1" fill="none" fill-rule="evenodd">
        <g id="00-Home" transform="translate(-155.000000, -777.000000)">
            <g id="Group-21" transform="translate(90.000000, 777.000000)">
                <g id="voyager_icon1" transform="translate(65.000000, 0.000000)">
                    <path d="M57.7667692,52.2442462 L46.8633846,52.6787077 L45.1667692,43.3827077 C44.6966154,40.8042462 42.4553846,38.9328615 39.8375385,38.9328615 C37.2196923,38.9328615 34.9784615,40.8042462 34.5083077,43.3827077 L32.8104615,52.6860923 L21.9083077,52.2442462 C20.9827692,52.0491692 20.3710769,51.1771692 20.5083077,50.2313231 L20.8603077,47.8024 C20.9218462,47.3740923 21.136,46.9833231 21.4627692,46.7014769 L30.9003077,38.5531692 C32.2713846,37.3685538 33.1015385,35.7205538 33.2375385,33.9125538 L34.6541538,15.0608615 C34.7538462,13.7427077 35.1095385,12.4768615 35.7113846,11.2996308 L38.0652308,6.6984 C38.4135385,6.01901538 39.0756923,5.61347692 39.8375385,5.61347692 C40.5993846,5.61347692 41.2621538,6.01901538 41.6098462,6.6984 L43.9636923,11.2996308 C44.5661538,12.4768615 44.9212308,13.7427077 45.0209231,15.0608615 L46.4375385,33.9125538 C46.5735385,35.7205538 47.4036923,37.3685538 48.7753846,38.5531692 L58.2129231,46.7027077 C58.5390769,46.9833231 58.7532308,47.3740923 58.8153846,47.8024 L59.1667692,50.2313231 C59.304,51.1771692 58.6916923,52.0491692 57.7667692,52.2442462 L57.7667692,52.2442462 Z M44.9624615,57.1187077 C44.104,57.6454769 42.4326154,57.6424 40.4978462,57.6344 L39.8375385,57.6337846 L39.1772308,57.6344 C37.2393846,57.6436308 35.5704615,57.6454769 34.712,57.1187077 C34.2990769,56.8651692 34.0818462,56.3624 34.1723077,55.8682462 L36.3883077,43.7260923 C36.6923077,42.0553231 38.1433846,40.8436308 39.8375385,40.8436308 C41.5316923,40.8436308 42.9827692,42.0553231 43.2867692,43.7260923 L45.5027692,55.8682462 C45.5932308,56.3624 45.376,56.8651692 44.9624615,57.1187077 L44.9624615,57.1187077 Z M60.7064615,47.5285538 C60.5778462,46.6436308 60.1353846,45.8368615 59.4609231,45.2553231 L50.024,37.1064 C49.0375385,36.2553231 48.4412308,35.0700923 48.3433846,33.7691692 L46.9261538,14.9168615 C46.808,13.3439385 46.3833846,11.8337846 45.6646154,10.4300923 L43.3107692,5.82886154 C42.64,4.51686154 41.3089231,3.70209231 39.8375385,3.70209231 C38.3661538,3.70209231 37.0350769,4.51686154 36.3643077,5.82886154 L34.0104615,10.4300923 C33.2916923,11.8350154 32.8670769,13.3445538 32.7489231,14.9168615 L31.3316923,33.7691692 C31.2338462,35.0700923 30.6375385,36.2553231 29.6516923,37.1064 L20.2147692,45.2547077 C19.5384615,45.8374769 19.0966154,46.6442462 18.9686154,47.5285538 L18.6166154,49.9568615 C18.328,51.9488615 19.6516923,53.7845538 21.6307692,54.1365538 L32.464,54.5839385 L32.2923077,55.5248615 C32.0615385,56.7894769 32.6326154,58.0842462 33.7126154,58.7476308 C35.0344615,59.5599385 36.8676923,59.5605538 39.1833846,59.5451692 L39.8375385,59.5445538 L40.4923077,59.5451692 C40.7064615,59.5464 40.9163077,59.5470154 41.1218462,59.5470154 C43.1446154,59.5470154 44.7636923,59.4842462 45.9630769,58.7476308 C47.0430769,58.0842462 47.6135385,56.7894769 47.3827692,55.5248615 L47.2098462,54.5771692 L57.9150769,54.1507077 L58.0443077,54.1365538 C60.0233846,53.7845538 61.3464615,51.9494769 61.0584615,49.9568615 L60.7064615,47.5285538 Z" id="Fill-1" fill="#F6F6F6"></path>
                    <path d="M36.0521846,65.2268308 C35.5248,65.2268308 35.0964923,65.6545231 35.0964923,66.1825231 L35.0964923,73.7677538 C35.0964923,74.2957538 35.5248,74.7234462 36.0521846,74.7234462 C36.5795692,74.7234462 37.0072615,74.2957538 37.0072615,73.7677538 L37.0072615,66.1825231 C37.0072615,65.6545231 36.5795692,65.2268308 36.0521846,65.2268308" id="Fill-3" fill="#F6F6F6"></path>
                    <path d="M39.7724308,62.9384 C39.2444308,62.9384 38.8167385,63.3654769 38.8167385,63.8940923 L38.8167385,77.2337846 C38.8167385,77.7624 39.2444308,78.1894769 39.7724308,78.1894769 C40.2998154,78.1894769 40.7275077,77.7624 40.7275077,77.2337846 L40.7275077,63.8940923 C40.7275077,63.3654769 40.2998154,62.9384 39.7724308,62.9384" id="Fill-5" fill="#F6F6F6"></path>
                    <path d="M43.4924308,65.2268308 C42.9650462,65.2268308 42.5373538,65.6545231 42.5373538,66.1825231 L42.5373538,70.7603692 C42.5373538,71.2883692 42.9650462,71.7160615 43.4924308,71.7160615 C44.0198154,71.7160615 44.4481231,71.2883692 44.4481231,70.7603692 L44.4481231,66.1825231 C44.4481231,65.6545231 44.0198154,65.2268308 43.4924308,65.2268308" id="Fill-7" fill="#F6F6F6"></path>
                    <g id="Group-11" transform="translate(0.000000, 0.035692)">
                        <mask id="mask-2" fill="white">
                            <use xlink:href="#path-1"></use>
                        </mask>
                        <g id="Clip-10"></g>
                        <path d="M5.11107692,8.89064615 C3.34615385,8.89064615 1.91107692,7.45495385 1.91107692,5.69064615 C1.91107692,3.92633846 3.34615385,2.49126154 5.11107692,2.49126154 C6.876,2.49126154 8.31169231,3.92633846 8.31169231,5.69064615 C8.31169231,7.45495385 6.876,8.89064615 5.11107692,8.89064615 M10.2224615,5.69064615 C10.2224615,2.8728 7.92953846,0.579876923 5.11107692,0.579876923 C2.29261538,0.579876923 -0.000307692308,2.8728 -0.000307692308,5.69064615 C-0.000307692308,8.50910769 2.29261538,10.8014154 5.11107692,10.8014154 C7.92953846,10.8014154 10.2224615,8.50910769 10.2224615,5.69064615" id="Fill-9" fill="#F6F6F6" mask="url(#mask-2)"></path>
                    </g>
                    <g id="Group-14" transform="translate(72.000000, 25.266462)">
                        <mask id="mask-4" fill="white">
                            <use xlink:href="#path-3"></use>
                        </mask>
                        <g id="Clip-13"></g>
                        <path d="M4.06843077,5.57273846 C3.1392,5.57273846 2.38350769,4.81643077 2.38350769,3.88781538 C2.38350769,2.95796923 3.1392,2.20227692 4.06843077,2.20227692 C4.99704615,2.20227692 5.75335385,2.95796923 5.75335385,3.88781538 C5.75335385,4.81643077 4.99704615,5.57273846 4.06843077,5.57273846 M4.06843077,0.291507692 C2.08566154,0.291507692 0.472123077,1.90443077 0.472123077,3.88781538 C0.472123077,5.86996923 2.08566154,7.48350769 4.06843077,7.48350769 C6.0512,7.48350769 7.66412308,5.86996923 7.66412308,3.88781538 C7.66412308,1.90443077 6.0512,0.291507692 4.06843077,0.291507692" id="Fill-12" fill="#F6F6F6" mask="url(#mask-4)"></path>
                    </g>
                    <path d="M62.4897231,21.0008615 L61.4928,20.0039385 L62.4897231,19.0070154 C62.8626462,18.6334769 62.8626462,18.0291692 62.4897231,17.6550154 C62.1168,17.2820923 61.5118769,17.2820923 61.1383385,17.6550154 L60.1414154,18.6525538 L59.1444923,17.6550154 C58.7715692,17.2820923 58.1666462,17.2820923 57.7937231,17.6550154 C57.4201846,18.0291692 57.4201846,18.6334769 57.7937231,19.0070154 L58.7906462,20.0039385 L57.7937231,21.0008615 C57.4201846,21.3737846 57.4201846,21.9787077 57.7937231,22.3516308 C57.9801846,22.5380923 58.2244923,22.6316308 58.4688,22.6316308 C58.7137231,22.6316308 58.9580308,22.5380923 59.1444923,22.3516308 L60.1414154,21.3547077 L61.1383385,22.3516308 C61.3254154,22.5380923 61.5697231,22.6316308 61.8140308,22.6316308 C62.0583385,22.6316308 62.3032615,22.5380923 62.4897231,22.3516308 C62.8626462,21.9787077 62.8626462,21.3737846 62.4897231,21.0008615" id="Fill-15" fill="#F6F6F6"></path>
                    <path d="M18.8974769,33.6433231 C19.1417846,33.6433231 19.3860923,33.5497846 19.5731692,33.3633231 C19.9460923,32.9897846 19.9460923,32.3854769 19.5731692,32.0125538 L18.5762462,31.0150154 L19.5731692,30.0180923 C19.9460923,29.6451692 19.9460923,29.0402462 19.5731692,28.6667077 C19.1996308,28.2937846 18.5947077,28.2937846 18.2217846,28.6667077 L17.2248615,29.6636308 L16.2279385,28.6667077 C15.8544,28.2937846 15.2500923,28.2937846 14.8765538,28.6667077 C14.5036308,29.0402462 14.5036308,29.6451692 14.8765538,30.0180923 L15.8734769,31.0150154 L14.8765538,32.0125538 C14.5036308,32.3854769 14.5036308,32.9897846 14.8765538,33.3633231 C15.0636308,33.5497846 15.3079385,33.6433231 15.5522462,33.6433231 C15.7965538,33.6433231 16.0408615,33.5497846 16.2279385,33.3633231 L17.2248615,32.3664 L18.2217846,33.3633231 C18.4082462,33.5497846 18.6531692,33.6433231 18.8974769,33.6433231" id="Fill-17" fill="#F6F6F6"></path>
                    <path d="M13.2998154,72.1703385 L11.8899692,72.1703385 L11.8899692,70.7604923 C11.8899692,70.2324923 11.4622769,69.8048 10.9342769,69.8048 C10.4068923,69.8048 9.9792,70.2324923 9.9792,70.7604923 L9.9792,72.1703385 L8.56935385,72.1703385 C8.04135385,72.1703385 7.61366154,72.5974154 7.61366154,73.1260308 C7.61366154,73.6534154 8.04135385,74.0811077 8.56935385,74.0811077 L9.9792,74.0811077 L9.9792,75.4909538 C9.9792,76.0189538 10.4068923,76.4466462 10.9342769,76.4466462 C11.4622769,76.4466462 11.8899692,76.0189538 11.8899692,75.4909538 L11.8899692,74.0811077 L13.2998154,74.0811077 C13.8272,74.0811077 14.2555077,73.6534154 14.2555077,73.1260308 C14.2555077,72.5974154 13.8272,72.1703385 13.2998154,72.1703385" id="Fill-19" fill="#F6F6F6"></path>
                    <path d="M2.73310769,54.3776615 C2.19710769,54.3776615 1.76264615,54.8121231 1.76264615,55.3481231 C1.76264615,55.8841231 2.19710769,56.3185846 2.73310769,56.3185846 C3.26910769,56.3185846 3.70356923,55.8841231 3.70356923,55.3481231 C3.70356923,54.8121231 3.26910769,54.3776615 2.73310769,54.3776615" id="Fill-21" fill="#F6F6F6"></path>
                    <path d="M70.9422154,43.0507692 C71.4782154,43.0507692 71.9126769,42.6163077 71.9126769,42.0803077 C71.9126769,41.5443077 71.4782154,41.1098462 70.9422154,41.1098462 C70.4062154,41.1098462 69.9717538,41.5443077 69.9717538,42.0803077 C69.9717538,42.6163077 70.4062154,43.0507692 70.9422154,43.0507692" id="Fill-23" fill="#F6F6F6"></path>
                    <path d="M58.1510769,5.62830769 C58.6870769,5.62830769 59.1215385,5.19384615 59.1215385,4.65784615 C59.1215385,4.12184615 58.6870769,3.68738462 58.1510769,3.68738462 C57.6150769,3.68738462 57.1806154,4.12184615 57.1806154,4.65784615 C57.1806154,5.19384615 57.6150769,5.62830769 58.1510769,5.62830769" id="Fill-25" fill="#F6F6F6"></path>
                    <path d="M23.1168,10.8524308 C23.6528,10.8524308 24.0872615,10.4179692 24.0872615,9.88196923 C24.0872615,9.34658462 23.6528,8.91212308 23.1168,8.91212308 C22.5808,8.91212308 22.1463385,9.34658462 22.1463385,9.88196923 C22.1463385,10.4179692 22.5808,10.8524308 23.1168,10.8524308" id="Fill-27" fill="#F6F6F6"></path>
                    <path d="M2.73310769,22.0718154 C2.19710769,22.0718154 1.76264615,22.5062769 1.76264615,23.0422769 C1.76264615,23.5782769 2.19710769,24.0127385 2.73310769,24.0127385 C3.26910769,24.0127385 3.70356923,23.5782769 3.70356923,23.0422769 C3.70356923,22.5062769 3.26910769,22.0718154 2.73310769,22.0718154" id="Fill-29" fill="#F6F6F6"></path>
                    <path d="M77.7382154,2.66972308 C78.2742154,2.66972308 78.7086769,2.23526154 78.7086769,1.69987692 C78.7086769,1.16387692 78.2742154,0.729415385 77.7382154,0.729415385 C77.2022154,0.729415385 76.7677538,1.16387692 76.7677538,1.69987692 C76.7677538,2.23526154 77.2022154,2.66972308 77.7382154,2.66972308" id="Fill-31" fill="#F6F6F6"></path>
                    <path d="M72.8529846,75.1366769 C71.4745231,75.9065231 69.8800615,76.0948308 68.3594462,75.6622154 C66.8400615,75.2314462 65.5803692,74.2351385 64.8105231,72.8560615 C64.6345231,72.5409846 64.4929846,72.2136 64.3785231,71.8788308 L69.2179077,69.1772923 C69.6788308,68.9200615 69.8437538,68.3391385 69.5859077,67.8782154 C69.3286769,67.4172923 68.7477538,67.2523692 68.2868308,67.5089846 L64.0659077,69.8652923 C64.0763692,69.3631385 64.1446769,68.8591385 64.2849846,68.3631385 C64.7157538,66.8437538 65.7120615,65.5840615 67.0905231,64.8142154 C67.9834462,64.3157538 68.9680615,64.0616 69.9631385,64.0616 C70.5046769,64.0616 71.0486769,64.1360615 71.5840615,64.2880615 C73.1034462,64.7194462 74.3637538,65.7145231 75.1336,67.0942154 C75.3391385,67.4616 75.4985231,67.8425231 75.6185231,68.2302154 C75.5582154,68.2499077 75.4960615,68.2554462 75.4388308,68.2874462 L69.9428308,71.3551385 C69.4819077,71.6129846 69.3163692,72.1945231 69.5742154,72.6554462 C69.7489846,72.9692923 70.0739077,73.1452923 70.4092923,73.1452923 C70.5668308,73.1452923 70.7262154,73.1059077 70.8739077,73.0234462 L75.8689846,70.2357538 C75.7779077,72.2129846 74.7046769,74.1022154 72.8529846,75.1366769 M72.1059077,62.4505231 C70.0954462,61.8769846 67.9828308,62.1262154 66.1594462,63.1452923 C64.3348308,64.1631385 63.0166769,65.8320615 62.4462154,67.8419077 C61.8763692,69.8511385 62.1231385,71.9631385 63.1422154,73.7877538 C64.5723692,76.3508308 67.2394462,77.7957538 69.9852923,77.7957538 C71.2745231,77.7957538 72.5809846,77.4769846 73.7840615,76.8049846 C77.5502154,74.7028308 78.9040615,69.9286769 76.8019077,66.1631385 C75.7834462,64.3385231 74.1157538,63.0197538 72.1059077,62.4505231" id="Fill-33" fill="#F6F6F6"></path>
                </g>
            </g>
        </g>
    </g>
</svg>