<?xml version="1.0" encoding="UTF-8"?>
<svg width="78px" height="80px" viewBox="0 0 78 80" version="1.1" xmlns="http://www.w3.org/2000/svg" xmlns:xlink="http://www.w3.org/1999/xlink">
    <!-- Generator: Sketch 46.2 (44496) - http://www.bohemiancoding.com/sketch -->
    <title>voyager_icon2</title>
    <desc>Created with Sketch.</desc>
    <defs>
        <polygon id="path-1" points="4.13749483e-17 2.35705263 4.13749483e-17 0.459909774 1.89708271 0.459909774 1.89708271 2.35705263"></polygon>
        <polygon id="path-3" points="2.20150376 0.441142857 2.20150376 2.33768421 0.304541353 2.33768421 0.304541353 0.441142857 2.20150376 0.441142857"></polygon>
    </defs>
    <g id="Desktop" stroke="none" stroke-width="1" fill="none" fill-rule="evenodd">
        <g id="00-Home" transform="translate(-406.000000, -776.000000)">
            <g id="Group-18" transform="translate(340.000000, 776.000000)">
                <g id="voyager_icon2" transform="translate(66.000000, 0.000000)">
                    <path d="M72.0998496,71.3498346 C71.7353383,70.9853233 71.1440602,70.9853233 70.7795489,71.3498346 L69.8051128,72.3242707 L68.8300752,71.3498346 C68.4655639,70.9853233 67.8748872,70.9853233 67.5097744,71.3498346 C67.1446617,71.7143459 67.1446617,72.3056241 67.5097744,72.6701353 L68.4842105,73.6451729 L67.5097744,74.6202105 C67.1446617,74.9847218 67.1446617,75.5753985 67.5097744,75.9405113 C67.6920301,76.1227669 67.9308271,76.2141955 68.1702256,76.2141955 C68.4090226,76.2141955 68.6478195,76.1227669 68.8300752,75.9405113 L69.8051128,74.9660752 L70.7795489,75.9405113 C70.9618045,76.1227669 71.2006015,76.2141955 71.4393985,76.2141955 C71.678797,76.2141955 71.917594,76.1227669 72.0998496,75.9405113 C72.4649624,75.5753985 72.4649624,74.9847218 72.0998496,74.6202105 L71.1254135,73.6451729 L72.0998496,72.6701353 C72.4649624,72.3056241 72.4649624,71.7143459 72.0998496,71.3498346" id="Fill-1" fill="#F6F6F6"></path>
                    <path d="M5.52354887,8.57906767 C5.70580451,8.76132331 5.9446015,8.85275188 6.184,8.85275188 C6.42279699,8.85275188 6.66159398,8.76132331 6.84384962,8.57906767 C7.20896241,8.21455639 7.20896241,7.6232782 6.84384962,7.25876692 L5.86941353,6.28433083 L6.84384962,5.30929323 C7.20896241,4.94418045 7.20896241,4.35350376 6.84384962,3.98839098 C6.47933835,3.6238797 5.88806015,3.6238797 5.52354887,3.98839098 L4.54911278,4.96282707 L3.57467669,3.98839098 C3.20956391,3.6238797 2.61828571,3.6238797 2.25377444,3.98839098 C1.88926316,4.35350376 1.88926316,4.94418045 2.25377444,5.30929323 L3.22821053,6.28433083 L2.25377444,7.25876692 C1.88926316,7.6232782 1.88926316,8.21455639 2.25377444,8.57906767 C2.43603008,8.76132331 2.67542857,8.85275188 2.91422556,8.85275188 C3.15302256,8.85275188 3.39242105,8.76132331 3.57467669,8.57906767 L4.54911278,7.60463158 L5.52354887,8.57906767 Z" id="Fill-3" fill="#F6F6F6"></path>
                    <path d="M37.9944662,1.89732331 C38.5183759,1.89732331 38.9430376,1.47266165 38.9430376,0.94875188 C38.9430376,0.424842105 38.5183759,0.000180451128 37.9944662,0.000180451128 C37.4705564,0.000180451128 37.0458947,0.424842105 37.0458947,0.94875188 C37.0458947,1.47266165 37.4705564,1.89732331 37.9944662,1.89732331" id="Fill-5" fill="#F6F6F6"></path>
                    <path d="M21.8061353,78.0527519 C21.2822256,78.0527519 20.8575639,78.4774135 20.8575639,79.0013233 C20.8575639,79.5252331 21.2822256,79.9498947 21.8061353,79.9498947 C22.3300451,79.9498947 22.7547068,79.5252331 22.7547068,79.0013233 C22.7547068,78.4774135 22.3300451,78.0527519 21.8061353,78.0527519" id="Fill-7" fill="#F6F6F6"></path>
                    <g id="Group-11" transform="translate(0.000000, 20.401203)">
                        <mask id="mask-2" fill="white">
                            <use xlink:href="#path-1"></use>
                        </mask>
                        <g id="Clip-10"></g>
                        <path d="M0.948511278,0.459909774 C0.424601504,0.459909774 -6.01503759e-05,0.885172932 -6.01503759e-05,1.4084812 C-6.01503759e-05,1.93239098 0.424601504,2.35705263 0.948511278,2.35705263 C1.47242105,2.35705263 1.89708271,1.93239098 1.89708271,1.4084812 C1.89708271,0.885172932 1.47242105,0.459909774 0.948511278,0.459909774" id="Fill-9" fill="#F6F6F6" mask="url(#mask-2)"></path>
                    </g>
                    <g id="Group-14" transform="translate(75.187970, 24.010226)">
                        <mask id="mask-4" fill="white">
                            <use xlink:href="#path-3"></use>
                        </mask>
                        <g id="Clip-13"></g>
                        <path d="M1.25311278,0.441142857 C0.729203008,0.441142857 0.304541353,0.865804511 0.304541353,1.38971429 C0.304541353,1.91302256 0.729203008,2.33768421 1.25311278,2.33768421 C1.77702256,2.33768421 2.20168421,1.91302256 2.20168421,1.38971429 C2.20168421,0.865804511 1.77702256,0.441142857 1.25311278,0.441142857" id="Fill-12" fill="#F6F6F6" mask="url(#mask-4)"></path>
                    </g>
                    <path d="M69.6300752,31.7886316 C69.4971429,31.2905865 68.9876692,30.9934436 68.487218,31.1269774 C67.9885714,31.2593083 67.6926316,31.771188 67.8255639,32.2704361 C70.6598496,42.8966015 67.595188,54.3233684 59.8273684,62.091188 C51.8598496,70.0593083 40.1798496,73.0529925 29.3461654,69.9053233 C28.8493233,69.7603609 28.3326316,70.0466767 28.1888722,70.5411128 C28.0451128,71.0361504 28.3290226,71.5540451 28.8246617,71.698406 C31.8442105,72.577203 34.9251128,73.0042707 37.9813534,73.0036692 C46.5509774,73.0036692 54.9190977,69.6412632 61.1482707,63.4114887 C69.3858647,55.1738947 72.6357895,43.0566015 69.6300752,31.7886316" id="Fill-15" fill="#F6F6F6"></path>
                    <path d="M14.8403609,63.4116692 C16.1492331,64.7217444 17.572391,65.9247519 19.0725414,66.987609 C19.2367519,67.1049023 19.4250226,67.1596391 19.6114887,67.1596391 C19.9038195,67.1596391 20.1919398,67.0230977 20.3741955,66.7668571 C20.6725414,66.3458045 20.5738947,65.7629474 20.1528421,65.4646015 C18.7393083,64.4612932 17.3967519,63.3268571 16.1606617,62.0913684 C4.12276692,50.0522707 4.12276692,30.4643008 16.1606617,18.425203 C28.1997594,6.38610526 47.7883308,6.38610526 59.8274286,18.425203 C61.0641203,19.6612932 62.1985564,21.0044511 63.2000602,22.416782 C63.4990075,22.8366316 64.0806617,22.9370827 64.5023158,22.6381353 C64.9233684,22.3397895 65.0226165,21.7569323 64.7242707,21.3364812 C63.662015,19.8381353 62.458406,18.4143759 61.1483308,17.1049023 C48.3814135,4.33798496 27.6072782,4.33798496 14.8403609,17.1049023 C2.07344361,29.871218 2.07344361,50.6447519 14.8403609,63.4116692" id="Fill-17" fill="#F6F6F6"></path>
                    <path d="M58.2320602,10.130406 C63.0188271,8.3367218 66.5851429,8.28198496 68.2783759,9.97341353 C70.1147669,11.810406 69.8994286,15.7821353 67.6726617,21.1589774 C65.6269474,26.0967218 62.0299549,31.8976241 57.2708571,37.9331128 C56.9514586,38.3379248 57.0212331,38.9249925 57.4260451,39.244391 C57.5974737,39.3791278 57.8013835,39.4446917 58.0040902,39.4446917 C58.2801805,39.4446917 58.5532632,39.3225865 58.7379248,39.0898045 C63.6010827,32.920782 67.2876992,26.9670977 69.3977744,21.8735639 C71.9698045,15.6642406 72.0401805,11.0934135 69.5992782,8.65311278 C67.3273985,6.38003008 63.169203,6.28679699 57.5770226,8.38123308 C57.0934135,8.56168421 56.8486015,9.10063158 57.0296541,9.58303759 C57.2107068,10.0666466 57.7514586,10.3090526 58.2320602,10.130406" id="Fill-19" fill="#F6F6F6"></path>
                    <path d="M37.1051429,59.5911579 C36.7845414,59.1857444 36.1980752,59.1165714 35.7932632,59.4377744 C29.7090526,64.246797 23.8642406,67.8774737 18.892812,69.9370226 C13.5195789,72.163188 9.54604511,72.3791278 7.71025564,70.5427368 C6.01822556,68.8513083 6.07356391,65.283188 7.86604511,60.4976241 C8.04709774,60.015218 7.80228571,59.4762707 7.31867669,59.2958195 C6.83747368,59.1159699 6.29852632,59.3601805 6.11687218,59.8425865 C4.02243609,65.4347669 4.11687218,69.5905564 6.38935338,71.8630376 C7.5767218,73.0510075 9.26754887,73.6434887 11.4070977,73.6434887 C13.6645414,73.6434887 16.4206316,72.9836391 19.6073985,71.6627368 C24.7364211,69.5388271 30.7334135,65.8179248 36.9511579,60.9030376 C37.3559699,60.5830376 37.4245414,59.9959699 37.1051429,59.5911579" id="Fill-21" fill="#F6F6F6"></path>
                    <path d="M48.6185865,51.8773534 C48.0279098,52.5263759 47.7259549,53.3666767 47.7662556,54.2424662 L47.9972331,59.2614135 C47.9996391,59.3029173 47.986406,59.3450226 47.9599398,59.3781053 L47.346406,60.1546466 C47.2952782,60.219609 47.2092632,60.2400602 47.1382857,60.2057744 L44.3749774,57.5122406 L46.3443008,54.8235188 C47.1250526,53.7570526 47.0318195,52.2875789 46.1241504,51.328782 C45.2164812,50.3693835 43.7536241,50.1991579 42.6468571,50.9203609 L39.8528722,52.7417143 L37.3151278,49.8346466 C37.2868571,49.7618647 37.3109173,49.6776541 37.3782857,49.6301353 L38.1861053,49.0593083 C38.220391,49.0346466 38.2630977,49.0250226 38.3046015,49.0292331 L43.3036992,49.5314887 C44.1770827,49.6150977 45.031218,49.3630677 45.7121203,48.8084812 L51.6212932,43.9988571 C51.977985,43.7077293 52.382797,43.4953985 52.8236992,43.3660752 L54.8218947,42.779609 C54.945203,42.7435188 55.028812,42.7958496 55.0775338,42.8475789 C55.1262556,42.8987068 55.1749774,42.9859248 55.1322707,43.1080301 L54.4387368,45.0719398 C54.2847519,45.5056241 54.0513684,45.897203 53.7421955,46.2370526 L48.6185865,51.8773534 Z M41.9220451,57.7017143 C41.6706165,57.5940451 41.2303158,57.1272782 40.8387368,56.7116391 L40.468812,56.3206617 C40.0483609,55.8791579 39.5719699,55.3793083 39.499188,55.2018647 L43.6670075,52.4854737 C43.8125714,52.3910376 43.977985,52.3435188 44.141594,52.3435188 C44.3719699,52.3435188 44.6005414,52.4361504 44.7683609,52.613594 C45.0558797,52.9173534 45.0841504,53.3817143 44.8369323,53.7197594 L41.9220451,57.7017143 Z M55.1238496,47.493594 C55.6008421,46.9696842 55.9629474,46.3639699 56.1999398,45.6938947 L56.8934737,43.729985 C57.1605414,42.9732932 56.9843008,42.1438195 56.4339248,41.5633684 C55.8835489,40.9817143 55.0655038,40.7603609 54.2961805,40.9865263 L52.296782,41.573594 C51.6164812,41.7732932 50.9927218,42.1017143 50.4423459,42.5498346 L44.5325714,47.3606617 C44.2378346,47.6006617 43.8691128,47.7137444 43.4919699,47.6728421 L38.4904662,47.169985 C37.9996391,47.1230677 37.511218,47.2505865 37.1094135,47.5326917 L36.301594,48.1035188 C35.3951278,48.7423158 35.1623459,49.9681805 35.7716692,50.8938947 L38.2985865,53.7991579 C37.8077594,54.2238195 37.5581353,54.8782556 37.6928722,55.5188571 C37.8534737,56.2827669 38.4387368,56.8981053 39.1160301,57.6078797 L39.4793383,57.9922406 C40.1506165,58.7050226 40.7298647,59.3191579 41.4829474,59.5206617 C41.6333233,59.5609624 41.7867068,59.5814135 41.9394887,59.5814135 C42.4267068,59.5814135 42.8952782,59.3708872 43.2393383,59.013594 L45.8997895,61.6078797 L45.9978346,61.6902857 C46.3641504,61.9615639 46.7894135,62.0926917 47.2110677,62.0926917 C47.8131729,62.0926917 48.4080602,61.8238195 48.8122707,61.3125414 L49.4246015,60.5366015 C49.7307669,60.1510376 49.8865564,59.6674286 49.8636992,59.176 L49.6321203,54.1564511 C49.6146767,53.7835188 49.748812,53.4105865 50.0008421,53.1332932 L55.1238496,47.493594 Z" id="Fill-23" fill="#F6F6F6"></path>
                </g>
            </g>
        </g>
    </g>
</svg>