<?xml version="1.0" encoding="UTF-8"?>
<svg width="80px" height="73px" viewBox="0 0 80 73" version="1.1" xmlns="http://www.w3.org/2000/svg" xmlns:xlink="http://www.w3.org/1999/xlink">
    <!-- Generator: Sketch 46.2 (44496) - http://www.bohemiancoding.com/sketch -->
    <title>voyager_icon4</title>
    <desc>Created with Sketch.</desc>
    <defs>
        <polygon id="path-1" points="6.79284022e-17 5.90419835 6.79284022e-17 0.257090909 5.64710744 0.257090909 5.64710744 5.90419835"></polygon>
        <polygon id="path-3" points="69.0607603 69.4214876 0.0703471074 69.4214876 0.0703471074 0.142413223 69.0607603 0.142413223 69.0607603 69.4214876"></polygon>
    </defs>
    <g id="Desktop" stroke="none" stroke-width="1" fill="none" fill-rule="evenodd">
        <g id="00-Home" transform="translate(-1044.000000, -780.000000)">
            <g id="Group-13" transform="translate(979.000000, 780.000000)">
                <g id="voyager_icon4" transform="translate(65.000000, 0.000000)">
                    <path d="M78.5095537,4.59464463 C79.0761653,4.59464463 79.5356694,4.13580165 79.5356694,3.56786777 C79.5356694,3.00059504 79.0761653,2.54175207 78.5095537,2.54175207 L76.9941818,2.54175207 L76.9941818,1.02704132 C76.9941818,0.459107438 76.5353388,0.00026446281 75.9680661,0.00026446281 C75.4014545,0.00026446281 74.9419504,0.459107438 74.9419504,1.02704132 L74.9419504,2.54175207 L73.4272397,2.54175207 C72.8599669,2.54175207 72.4004628,3.00059504 72.4004628,3.56786777 C72.4004628,4.13580165 72.8599669,4.59464463 73.4272397,4.59464463 L74.9419504,4.59464463 L74.9419504,6.10935537 C74.9419504,6.6766281 75.4014545,7.13613223 75.9680661,7.13613223 C76.5353388,7.13613223 76.9941818,6.6766281 76.9941818,6.10935537 L76.9941818,4.59464463 L78.5095537,4.59464463 Z" id="Fill-1" fill="#F6F6F6"></path>
                    <g id="Group-5" transform="translate(0.000000, 55.613884)">
                        <mask id="mask-2" fill="white">
                            <use xlink:href="#path-1"></use>
                        </mask>
                        <g id="Clip-4"></g>
                        <path d="M5.3461157,0.558082645 C4.94545455,0.156760331 4.29553719,0.156760331 3.89487603,0.558082645 L2.82380165,1.62915702 L1.75206612,0.558082645 C1.35140496,0.156760331 0.701487603,0.156760331 0.300826446,0.558082645 C-0.100495868,0.958743802 -0.100495868,1.60866116 0.300826446,2.00932231 L1.37190083,3.08039669 L0.300826446,4.15213223 C-0.100495868,4.55279339 -0.100495868,5.20204959 0.300826446,5.6033719 C0.501157025,5.80436364 0.763636364,5.90419835 1.02677686,5.90419835 C1.2892562,5.90419835 1.55173554,5.80436364 1.75206612,5.6033719 L2.82380165,4.53229752 L3.89487603,5.6033719 C4.09520661,5.80436364 4.35768595,5.90419835 4.62016529,5.90419835 C4.88330579,5.90419835 5.14578512,5.80436364 5.3461157,5.6033719 C5.74743802,5.20204959 5.74743802,4.55279339 5.3461157,4.15213223 L4.27504132,3.08039669 L5.3461157,2.00932231 C5.74743802,1.60866116 5.74743802,0.958743802 5.3461157,0.558082645" id="Fill-3" fill="#F6F6F6" mask="url(#mask-2)"></path>
                    </g>
                    <path d="M78.2083306,66.669157 C77.6324628,66.669157 77.165686,67.1359339 77.165686,67.7118017 C77.165686,68.2876694 77.6324628,68.7544463 78.2083306,68.7544463 C78.7841983,68.7544463 79.2509752,68.2876694 79.2509752,67.7118017 C79.2509752,67.1359339 78.7841983,66.669157 78.2083306,66.669157" id="Fill-6" fill="#F6F6F6"></path>
                    <path d="M5.96079339,2.52595041 C5.38492562,2.52595041 4.91814876,2.99206612 4.91814876,3.56793388 C4.91814876,4.14380165 5.38492562,4.61057851 5.96079339,4.61057851 C6.53666116,4.61057851 7.00343802,4.14380165 7.00343802,3.56793388 C7.00343802,2.99206612 6.53666116,2.52595041 5.96079339,2.52595041" id="Fill-8" fill="#F6F6F6"></path>
                    <path d="M61.7585455,49.5106777 C60.9168926,49.0551405 59.9542479,48.7953058 58.9320992,48.7953058 C55.6487934,48.7953058 52.977719,51.4670413 52.977719,54.7503471 C52.977719,55.7348099 53.221686,56.6617521 53.6468099,57.4815868 C50.2623471,59.4240661 46.4342479,60.4574545 42.4997025,60.4574545 C32.8316033,60.4574545 24.2015207,54.1500165 21.1992066,45.0300165 C22.451438,44.3404298 23.3116033,43.023405 23.3116033,41.4961322 C23.3116033,39.5424132 21.9198678,37.9067107 20.0752397,37.5291901 C20.3383802,25.3843967 30.2927603,15.5840661 42.4997025,15.5840661 C45.1575537,15.5840661 47.7387107,16.0667107 50.2015207,16.9685289 C50.1010248,17.3612562 50.0316033,17.764562 50.0316033,18.1883636 C50.0316033,20.9255537 52.2583802,23.1516694 54.9949091,23.1516694 C56.2087934,23.1516694 57.3076364,22.6961322 58.1711074,21.970843 C62.4798678,26.1810909 64.9360661,31.9741488 64.9360661,38.0204298 C64.9360661,42.0964628 63.832595,46.0429091 61.7585455,49.5106777 M58.9320992,58.6505124 C56.7806942,58.6505124 55.0306116,56.9017521 55.0306116,54.7503471 C55.0306116,52.5989421 56.7806942,50.8481983 58.9320992,50.8481983 C61.0835041,50.8481983 62.8329256,52.5989421 62.8329256,54.7503471 C62.8329256,56.9017521 61.0835041,58.6505124 58.9320992,58.6505124 M17.2653223,41.4961322 C17.2653223,40.3953058 18.1611901,39.5000992 19.2620165,39.5000992 C20.362843,39.5000992 21.2580496,40.3953058 21.2580496,41.4961322 C21.2580496,42.5969587 20.362843,43.4921653 19.2620165,43.4921653 C18.1611901,43.4921653 17.2653223,42.5969587 17.2653223,41.4961322 M54.9949091,15.2786116 C56.5995372,15.2786116 57.9053223,16.5830744 57.9053223,18.1883636 C57.9053223,19.7936529 56.5995372,21.0981157 54.9949091,21.0981157 C53.390281,21.0981157 52.085157,19.7936529 52.085157,18.1883636 C52.085157,16.5830744 53.390281,15.2786116 54.9949091,15.2786116 M59.4425124,20.3490248 C59.7625124,19.6924959 59.9582149,18.9658843 59.9582149,18.1883636 C59.9582149,15.4511736 57.7320992,13.2250579 54.9949091,13.2250579 C53.4292893,13.2250579 52.0474711,13.9681983 51.137719,15.1040661 C48.3813554,14.0640661 45.4808595,13.5305124 42.4997025,13.5305124 C29.1159008,13.5305124 18.211438,24.3239008 18.0190413,37.6627438 C16.3959008,38.1910083 15.2124298,39.6997686 15.2124298,41.4961322 C15.2124298,43.7103471 16.9995372,45.5093554 19.2071405,45.5397686 C22.4448264,55.5648926 31.9006942,62.5103471 42.4997025,62.5103471 C46.885157,62.5103471 51.1516033,61.3328264 54.9043306,59.1225785 C55.9654876,60.1010909 57.3783802,60.7040661 58.9320992,60.7040661 C62.2147438,60.7040661 64.8858182,58.0336529 64.8858182,54.7503471 C64.8858182,53.2336529 64.3112727,51.8524959 63.3750744,50.7999339 C65.7327603,46.9579504 66.9896198,42.5619174 66.9896198,38.0204298 C66.9896198,31.3453884 64.245157,24.9566281 59.4425124,20.3490248" id="Fill-10" fill="#F6F6F6"></path>
                    <g id="Group-14" transform="translate(7.933884, 3.382479)">
                        <mask id="mask-4" fill="white">
                            <use xlink:href="#path-3"></use>
                        </mask>
                        <g id="Clip-13"></g>
                        <path d="M34.5655537,67.0799339 C30.3387769,67.0799339 26.2462149,66.2726612 22.3777851,64.7017521 C22.6475372,63.952 22.8022479,63.1473719 22.8022479,62.305719 C22.8022479,58.3824132 19.6101818,55.1903471 15.6862149,55.1903471 C13.9017521,55.1903471 12.2726612,55.8554711 11.0217521,56.9450579 C5.28158678,50.8941488 2.12390083,43.0138182 2.12390083,34.638281 C2.12390083,25.7596033 5.79067769,17.2604298 12.2025785,11.1506777 C13.2505124,12.0756364 14.6217521,12.6415868 16.1265455,12.6415868 C19.404562,12.6415868 22.0710083,9.9751405 22.0710083,6.69712397 C22.0710083,6.04522314 21.9619174,5.41844628 21.766876,4.83133884 C25.8118347,3.08985124 30.1106777,2.19530579 34.5655537,2.19530579 C52.4538182,2.19530579 67.0078678,16.7500165 67.0078678,34.638281 C67.0078678,52.5265455 52.4538182,67.0799339 34.5655537,67.0799339 M15.6862149,67.3688595 C12.8948099,67.3688595 10.6237355,65.0977851 10.6237355,62.305719 C10.6237355,59.514314 12.8948099,57.2432397 15.6862149,57.2432397 C18.4776198,57.2432397 20.7486942,59.514314 20.7486942,62.305719 C20.7486942,65.0977851 18.4776198,67.3688595 15.6862149,67.3688595 M16.1265455,2.80489256 C18.272,2.80489256 20.0181157,4.55034711 20.0181157,6.69712397 C20.0181157,8.84323967 18.272,10.5886942 16.1265455,10.5886942 C13.9804298,10.5886942 12.2349752,8.84323967 12.2349752,6.69712397 C12.2349752,4.55034711 13.9804298,2.80489256 16.1265455,2.80489256 M34.5655537,0.142413223 C29.7675372,0.142413223 25.139438,1.11695868 20.7877025,3.01778512 C19.6974545,1.63993388 18.0154711,0.752 16.1265455,0.752 C12.8478678,0.752 10.1814215,3.41844628 10.1814215,6.69712397 C10.1814215,7.72852893 10.4472066,8.6997686 10.9113388,9.54604959 C4.01613223,16.0518347 0.0703471074,25.1400992 0.0703471074,34.638281 C0.0703471074,43.6141488 3.48191736,52.0558017 9.67894215,58.5086942 C8.98076033,59.6088595 8.57084298,60.9093554 8.57084298,62.305719 C8.57084298,66.229686 11.7622479,69.4217521 15.6862149,69.4217521 C18.0313388,69.4217521 20.1093554,68.2766281 21.4058843,66.520595 C25.5791074,68.246876 29.9996033,69.1321653 34.5655537,69.1321653 C53.5863802,69.1321653 69.0607603,53.6584463 69.0607603,34.638281 C69.0607603,15.6167934 53.5863802,0.142413223 34.5655537,0.142413223" id="Fill-12" fill="#F6F6F6" mask="url(#mask-4)"></path>
                    </g>
                    <path d="M42.499438,45.7116033 C38.2581157,45.7116033 34.8081983,42.2610248 34.8081983,38.0203636 C34.8081983,33.7797025 38.2581157,30.329124 42.499438,30.329124 C46.7407603,30.329124 50.1906777,33.7797025 50.1906777,38.0203636 C50.1906777,42.2610248 46.7407603,45.7116033 42.499438,45.7116033 M42.499438,28.2762314 C37.126876,28.2762314 32.7553058,32.6471405 32.7553058,38.0203636 C32.7553058,43.3935868 37.126876,47.7644959 42.499438,47.7644959 C47.872,47.7644959 52.2435702,43.3935868 52.2435702,38.0203636 C52.2435702,32.6471405 47.872,28.2762314 42.499438,28.2762314" id="Fill-15" fill="#F6F6F6"></path>
                    <path d="M42.499438,26.6433058 C43.0660496,26.6433058 43.5262149,26.1844628 43.5262149,25.6165289 L43.5262149,23.5517355 C43.5262149,22.9844628 43.0660496,22.5249587 42.499438,22.5249587 C41.9328264,22.5249587 41.4726612,22.9844628 41.4726612,23.5517355 L41.4726612,25.6165289 C41.4726612,26.1844628 41.9328264,26.6433058 42.499438,26.6433058" id="Fill-17" fill="#F6F6F6"></path>
                    <path d="M42.499438,49.3970248 C41.9328264,49.3970248 41.4726612,49.8558678 41.4726612,50.4238017 L41.4726612,52.4899174 C41.4726612,53.0565289 41.9328264,53.5160331 42.499438,53.5160331 C43.0660496,53.5160331 43.5262149,53.0565289 43.5262149,52.4899174 L43.5262149,50.4238017 C43.5262149,49.8558678 43.0660496,49.3970248 42.499438,49.3970248" id="Fill-19" fill="#F6F6F6"></path>
                    <path d="M56.9683967,36.9939174 L54.9029421,36.9939174 C54.3363306,36.9939174 53.8768264,37.4527603 53.8768264,38.0206942 C53.8768264,38.5879669 54.3363306,39.0468099 54.9029421,39.0468099 L56.9683967,39.0468099 C57.5350083,39.0468099 57.9951736,38.5879669 57.9951736,38.0206942 C57.9951736,37.4527603 57.5350083,36.9939174 56.9683967,36.9939174" id="Fill-21" fill="#F6F6F6"></path>
                    <path d="M30.0956033,36.9939174 L28.0301488,36.9939174 C27.4635372,36.9939174 27.0040331,37.4527603 27.0040331,38.0206942 C27.0040331,38.5879669 27.4635372,39.0468099 28.0301488,39.0468099 L30.0956033,39.0468099 C30.6622149,39.0468099 31.1223802,38.5879669 31.1223802,38.0206942 C31.1223802,37.4527603 30.6622149,36.9939174 30.0956033,36.9939174" id="Fill-23" fill="#F6F6F6"></path>
                    <path d="M51.9960992,46.0654545 C51.595438,45.6647934 50.9441983,45.6647934 50.5441983,46.0654545 C50.1435372,46.4661157 50.1435372,47.1160331 50.5441983,47.5166942 L52.0046942,48.9765289 C52.2050248,49.1775207 52.4675041,49.2773554 52.7306446,49.2773554 C52.993124,49.2773554 53.2562645,49.1775207 53.4559339,48.9765289 C53.8572562,48.5758678 53.8572562,47.9259504 53.4559339,47.5252893 L51.9960992,46.0654545 Z" id="Fill-25" fill="#F6F6F6"></path>
                    <path d="M33.0030413,29.9755372 C33.2033719,30.1765289 33.4658512,30.2763636 33.7289917,30.2763636 C33.9914711,30.2763636 34.2539504,30.1765289 34.454281,29.9755372 C34.8556033,29.574876 34.8556033,28.9249587 34.454281,28.5242975 L32.9944463,27.0638017 C32.593124,26.6624793 31.9438678,26.6624793 31.5432066,27.0638017 C31.1418843,27.4644628 31.1418843,28.1143802 31.5432066,28.5150413 L33.0030413,29.9755372 Z" id="Fill-27" fill="#F6F6F6"></path>
                    <path d="M33.0030413,46.0654545 L31.5432066,47.5252893 C31.1418843,47.9259504 31.1418843,48.5758678 31.5432066,48.9765289 C31.7435372,49.1775207 32.0060165,49.2773554 32.2684959,49.2773554 C32.5316364,49.2773554 32.7941157,49.1775207 32.9944463,48.9765289 L34.454281,47.5166942 C34.8556033,47.1160331 34.8556033,46.4661157 34.454281,46.0654545 C34.0536198,45.6647934 33.4037025,45.6647934 33.0030413,46.0654545" id="Fill-29" fill="#F6F6F6"></path>
                    <path d="M52.0044959,27.0636033 L50.5446612,28.5240992 C50.1433388,28.9247603 50.1433388,29.5746777 50.5446612,29.9753388 C50.7449917,30.1763306 51.0074711,30.2761653 51.2706116,30.2761653 C51.5330909,30.2761653 51.7962314,30.1763306 51.9959008,29.9753388 L53.4563967,28.514843 C53.8570579,28.1141818 53.8570579,27.4642645 53.4563967,27.0636033 C53.0550744,26.6629421 52.4044959,26.6629421 52.0044959,27.0636033" id="Fill-31" fill="#F6F6F6"></path>
                </g>
            </g>
        </g>
    </g>
</svg>