<?xml version="1.0" encoding="UTF-8"?>
<svg width="80px" height="78px" viewBox="0 0 80 78" version="1.1" xmlns="http://www.w3.org/2000/svg" xmlns:xlink="http://www.w3.org/1999/xlink">
    <!-- Generator: Sketch 46.2 (44496) - http://www.bohemiancoding.com/sketch -->
    <title>voyager_icon3</title>
    <desc>Created with Sketch.</desc>
    <defs>
        <polygon id="path-1" points="0.000192 76.8 79.49696 76.8 79.49696 0.28544 0.000192 0.28544"></polygon>
    </defs>
    <g id="Desktop" stroke="none" stroke-width="1" fill="none" fill-rule="evenodd">
        <g id="00-Home" transform="translate(-794.000000, -778.000000)">
            <g id="Group-15" transform="translate(729.000000, 778.000000)">
                <g id="voyager_icon3" transform="translate(65.000000, 0.000000)">
                    <path d="M45.625664,55.899136 C45.625664,56.633856 45.026624,57.232256 44.290624,57.232256 C43.554624,57.232256 42.954944,56.633856 42.954944,55.899136 C42.954944,55.164416 43.554624,54.566016 44.290624,54.566016 C45.026624,54.566016 45.625664,55.164416 45.625664,55.899136 M62.977984,50.761856 C61.900224,51.612416 57.273024,54.717696 47.438784,54.887296 C47.007424,53.552256 45.767104,52.578816 44.290624,52.578816 C42.458304,52.578816 40.967744,54.068096 40.967744,55.899136 C40.967744,57.730176 42.458304,59.220096 44.290624,59.220096 C45.781184,59.220096 47.030464,58.227456 47.450304,56.873856 C54.787264,56.750976 59.457984,55.064576 62.039104,53.698176 C60.511424,57.015296 57.715904,58.509696 52.758464,59.776896 C45.745344,61.568256 33.863744,61.703936 26.094784,60.189696 C30.158144,37.217536 46.605504,27.664256 48.425664,26.674816 C50.380864,26.573696 52.175424,26.442496 53.305664,26.274176 C54.467904,26.100096 57.430464,25.927296 59.871424,28.032256 C62.433344,30.240896 63.732544,34.276736 63.732544,40.029056 C63.732544,44.666496 63.545024,48.121856 62.977984,50.761856 M13.243584,40.029056 C13.243584,34.276736 14.542784,30.240896 17.104704,28.032256 C18.871744,26.507776 20.913344,26.178816 22.345664,26.178816 C22.892224,26.178816 23.349184,26.226816 23.670464,26.274176 C27.341504,26.820736 38.021184,26.976896 38.501824,26.983296 C38.721984,26.980096 41.358144,26.941696 44.430784,26.839936 C42.542144,28.167296 40.023744,30.180096 37.367104,32.992896 C32.574784,38.066816 26.467904,46.798336 24.154944,59.760256 C14.980544,57.402496 13.243584,54.246656 13.243584,40.029056 M53.013184,24.308736 C49.472064,24.835456 38.583744,24.994176 38.501824,24.996096 C38.392384,24.994176 27.504064,24.836096 23.962304,24.308736 C22.529344,24.096256 18.869824,23.885056 15.806784,26.526976 C12.786624,29.129856 11.256384,33.672576 11.256384,40.029056 C11.256384,54.350976 12.892224,58.933376 23.725504,61.702016 C27.726784,62.725376 33.106624,63.236096 38.487744,63.236096 C43.868864,63.236096 49.249344,62.725376 53.250624,61.702016 C64.083264,58.933376 65.719104,54.350976 65.719104,40.029056 C65.719104,33.672576 64.188864,29.129856 61.168704,26.526976 C58.105024,23.885696 54.442944,24.097536 53.013184,24.308736" id="Fill-1" fill="#F6F6F6"></path>
                    <g id="Group-5" transform="translate(0.000000, 0.354560)">
                        <mask id="mask-2" fill="white">
                            <use xlink:href="#path-1"></use>
                        </mask>
                        <g id="Clip-4"></g>
                        <path d="M77.460032,20.936448 C77.365952,21.269888 77.147072,21.547648 76.827712,21.726848 L71.038272,25.111808 C69.515072,19.554688 66.603072,14.568448 62.697792,10.546048 L68.624832,7.079808 C69.249472,6.729728 70.045632,6.951808 70.396992,7.578368 L77.342272,19.949568 C77.511872,20.251648 77.553472,20.602368 77.460032,20.936448 L77.460032,20.936448 Z M74.549312,34.786048 C74.840512,35.829248 74.988352,37.763968 74.988352,40.536448 C74.988352,42.293248 74.938432,44.488448 74.549312,45.881088 C74.430272,46.306688 74.052672,46.592768 73.610432,46.592768 L72.240192,46.592768 L72.240192,34.075008 L73.610432,34.075008 C74.052672,34.075008 74.430272,34.361088 74.549312,34.786048 L74.549312,34.786048 Z M38.487872,67.458048 C17.934912,67.458048 6.722752,64.117888 6.722752,62.401408 L6.722752,34.012288 C6.722752,16.510848 20.972352,2.272768 38.487872,2.272768 C56.003392,2.272768 70.252992,16.510848 70.252992,34.012288 L70.252992,62.401408 C70.252992,64.117888 59.040832,67.458048 38.487872,67.458048 L38.487872,67.458048 Z M38.487872,74.812928 C17.934912,74.812928 6.722752,71.472128 6.722752,69.756288 L6.722752,65.039488 C12.398912,68.456448 28.927552,69.445888 38.487872,69.445888 C48.047552,69.445888 64.576832,68.456448 70.252992,65.039488 L70.252992,69.756288 C70.252992,71.472128 59.040832,74.812928 38.487872,74.812928 L38.487872,74.812928 Z M3.365312,46.592768 C2.923072,46.592768 2.546112,46.306688 2.426432,45.881728 C2.037312,44.488448 1.987392,42.293248 1.987392,40.536448 C1.987392,37.763968 2.135232,35.829248 2.426432,34.786688 C2.546112,34.361088 2.923072,34.075008 3.365312,34.075008 L4.734912,34.075008 L4.734912,46.592768 L3.365312,46.592768 Z M79.075392,18.976128 L72.130112,6.605568 C71.243712,5.025408 69.236032,4.460928 67.637312,5.355648 L61.221952,9.106688 C55.219392,3.630208 47.237312,0.284928 38.487872,0.284928 C20.523072,0.284928 5.795392,14.383488 4.793792,32.087808 L3.365312,32.087808 C2.042432,32.087808 0.869312,32.977408 0.512832,34.251648 C0.167872,35.484928 0.000192,37.541248 0.000192,40.536448 C0.000192,43.372288 0.153152,45.131008 0.512832,46.416768 C0.869312,47.690368 2.042432,48.579968 3.365312,48.579968 L4.734912,48.579968 L4.734912,69.756288 C4.734912,75.328128 26.813632,76.800128 38.487872,76.800128 C50.162112,76.800128 72.240192,75.328128 72.240192,69.756288 L72.240192,48.579968 L73.610432,48.579968 C74.933312,48.579968 76.106432,47.690368 76.462912,46.416768 C76.822592,45.131008 76.975552,43.372288 76.975552,40.536448 C76.975552,37.541248 76.807872,35.484928 76.462912,34.251008 C76.106432,32.977408 74.933312,32.087808 73.610432,32.087808 L72.181312,32.087808 C72.085952,30.398208 71.867072,28.741248 71.530432,27.126528 L77.815232,23.451648 C78.581952,23.022208 79.134912,22.320128 79.372352,21.474688 C79.611072,20.629248 79.504832,19.742208 79.075392,18.976128 L79.075392,18.976128 Z" id="Fill-3" fill="#F6F6F6" mask="url(#mask-2)"></path>
                    </g>
                    <path d="M69.459456,13.259776 C69.415936,13.416576 69.313536,13.546496 69.171456,13.626496 C68.876416,13.791616 68.503936,13.685376 68.339456,13.392896 C68.259456,13.250816 68.240256,13.086336 68.283776,12.930176 C68.327936,12.774016 68.430976,12.644096 68.572416,12.563456 C68.667136,12.510976 68.769536,12.486016 68.871296,12.486016 C69.085056,12.486016 69.293056,12.598016 69.405056,12.797056 C69.484416,12.939136 69.503616,13.102976 69.459456,13.259776 L69.459456,13.259776 Z M70.142976,15.359616 C70.748416,15.020416 71.184896,14.466176 71.372416,13.798656 C71.561216,13.130496 71.477376,12.429056 71.138176,11.824256 C70.435456,10.576256 68.850816,10.130816 67.600896,10.830336 C66.996096,11.168896 66.558976,11.723776 66.370816,12.391296 C66.182656,13.059456 66.266496,13.760896 66.606336,14.365696 C67.081856,15.213056 67.966976,15.691136 68.876416,15.691136 C69.306496,15.691136 69.741696,15.584256 70.142336,15.360256 L70.142976,15.359616 Z" id="Fill-6" fill="#F6F6F6"></path>
                    <path d="M72.436608,19.4432 C72.142848,19.60768 71.769728,19.50336 71.604608,19.21024 C71.440128,18.91712 71.545088,18.54464 71.837568,18.38016 C71.932288,18.32704 72.035328,18.30272 72.136448,18.30272 C72.350208,18.30272 72.557568,18.41472 72.670208,18.61376 C72.834048,18.90688 72.729728,19.27872 72.436608,19.4432 M70.866048,16.64704 C69.617408,17.34784 69.170688,18.93376 69.872128,20.18304 C70.347648,21.0304 71.232768,21.50784 72.142208,21.50784 C72.571648,21.50784 73.008128,21.40096 73.408128,21.17632 L73.408768,21.17632 C74.013568,20.83712 74.450048,20.28288 74.638208,19.61536 C74.826368,18.94784 74.743168,18.2464 74.402688,17.64096 C73.701888,16.39232 72.115328,15.94752 70.866048,16.64704" id="Fill-8" fill="#F6F6F6"></path>
                </g>
            </g>
        </g>
    </g>
</svg>